<svg width="35" height="36" viewBox="0 0 35 36" fill="none" xmlns="http://www.w3.org/2000/svg">
<path d="M34.0843 25.7538L29.2 20.8695C27.4556 19.1251 24.4901 19.8229 23.7923 22.0906C23.269 23.6606 21.5246 24.5328 19.9546 24.1839C16.4658 23.3117 11.7559 18.7762 10.8837 15.1129C10.3604 13.5429 11.407 11.7985 12.977 11.2752C15.2447 10.5775 15.9425 7.61196 14.1981 5.86755L9.31371 0.983198C7.91818 -0.237889 5.82489 -0.237889 4.6038 0.983198L1.28942 4.29758C-2.02496 7.7864 1.6383 17.0318 9.83703 25.2305C18.0358 33.4292 27.2811 37.267 30.77 33.7781L34.0843 30.4637C35.3055 29.0682 35.3055 26.9749 34.0843 25.7538Z" fill="white"/>
</svg>
