<svg width="178" height="179" viewBox="0 0 178 179" fill="none" xmlns="http://www.w3.org/2000/svg">
<g filter="url(#filter0_d)">
<circle cx="89" cy="79.5" r="59" fill="url(#paint0_linear)"/>
</g>
<path d="M114.391 70.1667H107.516L105.72 59.4022C105.365 57.7551 104.564 56.2385 103.405 55.0198C102.247 53.801 100.776 52.9275 99.1541 52.4956C97.54 51.9164 95.8493 51.5809 94.1372 51.5H83.8554C82.1704 51.5467 80.5011 51.8402 78.9004 52.3711C77.2515 52.8027 75.7562 53.6904 74.5846 54.9334C73.413 56.1764 72.6121 57.7247 72.273 59.4022L70.4768 70.1667H63.2301C62.8705 70.1764 62.5184 70.271 62.202 70.4428C61.8856 70.6146 61.6139 70.8588 61.4089 71.1556C61.2038 71.4524 61.0712 71.7936 61.0218 72.1514C60.9723 72.5093 61.0074 72.8738 61.1242 73.2156L68.6187 102.46C69.4548 105.384 72.0872 107.432 75.1222 107.5H102.87C104.358 107.478 105.799 106.977 106.982 106.069C108.164 105.162 109.024 103.896 109.436 102.46L116.868 73.2156C117 72.8428 117.034 72.4422 116.966 72.0525C116.899 71.6629 116.733 71.2972 116.484 70.9908C116.235 70.6844 115.911 70.4477 115.545 70.3033C115.178 70.1589 114.781 70.1119 114.391 70.1667ZM75.1841 70.1667L76.8564 60.1489C77.0412 59.3312 77.4637 58.587 78.0702 58.011C78.6767 57.4349 79.44 57.0528 80.263 56.9133C81.4089 56.54 82.5919 56.3347 83.7935 56.2911H94.1372C95.3388 56.3347 96.5218 56.54 97.6676 56.9133C98.4907 57.0528 99.2539 57.4349 99.8605 58.011C100.467 58.587 100.889 59.3312 101.074 60.1489L102.808 70.1667H75.1841Z" fill="white"/>
<defs>
<filter id="filter0_d" x="0" y="0.5" width="178" height="178" filterUnits="userSpaceOnUse" color-interpolation-filters="sRGB">
<feFlood flood-opacity="0" result="BackgroundImageFix"/>
<feColorMatrix in="SourceAlpha" type="matrix" values="0 0 0 0 0 0 0 0 0 0 0 0 0 0 0 0 0 0 127 0"/>
<feOffset dy="10"/>
<feGaussianBlur stdDeviation="15"/>
<feColorMatrix type="matrix" values="0 0 0 0 0.384314 0 0 0 0 0.192157 0 0 0 0 0.933333 0 0 0 0.45 0"/>
<feBlend mode="normal" in2="BackgroundImageFix" result="effect1_dropShadow"/>
<feBlend mode="normal" in="SourceGraphic" in2="effect1_dropShadow" result="shape"/>
</filter>
<linearGradient id="paint0_linear" x1="89" y1="20.5" x2="89" y2="138.5" gradientUnits="userSpaceOnUse">
<stop stop-color="#1C2973"/>
<stop offset="1" stop-color="#6231EE"/>
</linearGradient>
</defs>
</svg>
