<svg width="804" height="478" viewBox="0 0 804 478" fill="none" xmlns="http://www.w3.org/2000/svg">
<path d="M158.593 433.2C158.77 433.2 158.991 433.112 159.079 432.935C179.416 403.269 186.357 380.323 179.681 364.76C173.757 350.921 158.814 348.357 158.637 348.357C158.284 348.313 157.974 348.534 157.93 348.888C157.886 349.241 158.107 349.551 158.46 349.595C158.593 349.639 172.917 352.115 178.576 365.29C185.031 380.411 178.134 402.959 158.063 432.272C157.886 432.537 157.93 432.935 158.239 433.112C158.328 433.156 158.46 433.2 158.593 433.2Z" fill="#F0F0F0"/>
<path d="M664.358 433.2C664.181 433.2 663.96 433.112 663.871 432.935C643.535 403.269 636.594 380.323 643.269 364.76C649.194 350.921 664.137 348.357 664.313 348.357C664.667 348.313 664.977 348.534 665.021 348.888C665.065 349.241 664.844 349.551 664.49 349.595C664.358 349.639 650.034 352.115 644.375 365.29C637.92 380.411 644.817 402.959 664.888 432.272C665.065 432.537 665.021 432.935 664.711 433.112C664.623 433.156 664.49 433.2 664.358 433.2Z" fill="#F0F0F0"/>
<path d="M148.602 152.143V416.665C148.602 436.119 165.711 451.902 186.799 451.902H630.979C652.067 451.902 669.176 436.119 669.176 416.665V152.143H148.602Z" fill="url(#paint0_linear)"/>
<path d="M539.287 73.4014L426.374 5.0935C415.41 -1.53833 402.324 -1.53833 391.359 5.0935L278.491 73.3572L148.071 152.232L278.491 230.93L408.911 309.627L539.331 230.841L669.751 152.232L539.287 73.4014Z" fill="url(#paint1_linear)"/>
<path d="M570.809 24.149H206.428C200.018 24.149 194.668 29.7197 194.668 36.1305V331.866H623.065V77.2479L570.809 24.149Z" fill="white"/>
<path d="M622.887 77.2479L575.052 77.6458C573.77 77.6458 572.797 77.1594 571.913 76.2752C571.029 75.3909 570.94 74.153 570.94 72.9151V24.5027L622.887 77.2479Z" fill="#6939F1"/>
<path d="M503.388 180.793C503.388 191.89 501.62 202.103 498.083 211.299C494.546 220.54 489.506 227.746 483.007 233.007C476.508 238.269 468.992 240.877 460.416 240.877C454.713 240.877 449.628 239.507 445.252 236.766C440.831 234.024 437.692 230.399 435.746 225.934H433.89C425.534 235.881 414.923 240.877 402.058 240.877C388.397 240.877 377.61 236.766 369.741 228.542C361.871 220.319 357.936 209.089 357.936 194.764C357.936 178.494 363.109 165.363 373.454 155.371C383.799 145.423 397.328 140.427 413.995 140.427C420.627 140.427 427.965 141.046 435.923 142.328C443.925 143.61 450.513 145.114 455.685 146.882L453.033 203.518C453.033 214.261 455.95 219.611 461.83 219.611C466.782 219.611 470.717 215.986 473.635 208.779C476.552 201.573 478.056 192.111 478.056 180.483C478.056 168.06 475.491 157.051 470.319 147.545C465.146 137.995 457.851 130.745 448.479 125.704C439.106 120.664 428.408 118.188 416.338 118.188C400.732 118.188 387.204 121.372 375.709 127.782C364.214 134.193 355.372 143.434 349.227 155.503C343.082 167.662 339.987 181.633 339.987 197.461C339.987 218.771 345.69 235.13 357.052 246.492C368.458 257.899 384.949 263.558 406.568 263.558C414.747 263.558 423.765 262.63 433.536 260.817C443.351 259.004 452.988 256.352 462.494 252.903V275.142C445.959 282.171 427.656 285.664 407.496 285.664C378.141 285.664 355.284 277.927 338.882 262.497C322.48 247.067 314.257 225.58 314.257 198.124C314.257 179.069 318.457 161.737 326.813 146.175C335.168 130.612 347.105 118.409 362.579 109.567C378.052 100.725 395.869 96.3033 416.029 96.3033C433.005 96.3033 448.169 99.796 461.521 106.737C474.872 113.679 485.173 123.582 492.424 136.404C499.763 149.27 503.388 164.036 503.388 180.793ZM384.816 195.25C384.816 211.52 391.448 219.7 404.755 219.7C411.696 219.7 417.001 217.268 420.627 212.36C424.252 207.453 426.462 199.495 427.214 188.442L428.717 162.843C424.782 162.003 420.361 161.561 415.41 161.561C405.772 161.561 398.256 164.567 392.907 170.58C387.513 176.637 384.816 184.86 384.816 195.25Z" fill="url(#paint2_linear)"/>
<path d="M726.567 272.711C726.567 272.711 716.399 282.349 713.039 299.503C709.679 316.658 701.677 275.275 701.677 275.275H693.586C693.586 275.275 690.536 317.94 713.304 321.3C717.637 321.963 722.014 320.239 724.71 316.79C728.866 311.529 735.365 302.112 736.912 293.137C735.674 278.989 726.567 272.711 726.567 272.711Z" fill="url(#paint3_linear)"/>
<path d="M778.248 470.207C778.248 470.074 778.248 469.941 778.204 469.809C776.303 462.249 768.478 458.358 768.478 458.358L764.72 458.667C762.554 465.343 761.183 468.571 761.537 470.428C761.537 470.472 761.581 470.516 761.581 470.56C764.676 470.826 771.086 471.003 778.248 470.207Z" fill="url(#paint4_linear)"/>
<path d="M761.582 470.56C761.759 471.179 762.201 471.621 762.776 471.754C767.197 472.683 774.182 471.931 777.1 471.533C777.763 471.445 778.205 470.87 778.249 470.162C771.087 471.003 764.677 470.826 761.582 470.56Z" fill="url(#paint5_linear)"/>
<path d="M771.618 452.522L769.982 460.436C769.849 461.011 769.407 461.453 768.877 461.497C768.213 461.541 767.285 461.585 766.312 461.453C765.472 461.32 764.853 460.48 765.03 459.552L766.18 452.522H771.618Z" fill="url(#paint6_linear)"/>
<path d="M729.706 470.472C733.73 470.339 735.807 469.897 736.868 469.455C736.868 469.853 736.868 470.251 736.868 470.693C736.868 471.135 736.515 471.489 736.117 471.489L714.1 471.356C713.393 471.356 712.995 470.516 713.304 469.897C716.178 470.118 723.517 470.649 729.706 470.472Z" fill="url(#paint7_linear)"/>
<path d="M713.26 469.897C713.304 469.853 713.304 469.765 713.349 469.721C715.294 467.024 720.245 461.586 730.016 459.242L734.702 459.11C734.702 459.11 736.78 462.735 736.824 469.455C735.763 469.897 733.685 470.384 729.662 470.472C723.517 470.649 716.178 470.119 713.26 469.897Z" fill="url(#paint8_linear)"/>
<path d="M735.586 451.991C735.542 452.345 734.879 457.651 734.658 459.728C734.613 460.215 734.26 460.613 733.818 460.657C733.022 460.745 731.74 460.834 730.59 460.613C729.971 460.48 729.529 459.905 729.529 459.198V450.842L735.586 451.991Z" fill="url(#paint9_linear)"/>
<path d="M768.479 348.623C768.479 348.623 775.994 415.384 771.794 457.12C771.794 457.12 766.799 457.12 764.279 456.28C764.279 456.28 756.453 391.023 753.933 372.321C753.845 371.613 752.828 371.569 752.695 372.277C749.601 387.972 737.355 449.604 735.896 455.44C735.896 455.44 731.74 457.12 728.38 455.44C728.38 455.44 735.056 366.131 740.051 350.303L768.479 348.623Z" fill="#8B65F8"/>
<path d="M783.51 271.031C783.51 271.031 751.812 266.035 726.789 272.711L728.469 298.575C728.469 298.575 735.144 334.475 740.14 350.303C740.14 350.303 759.327 353.619 768.523 348.623C768.523 348.623 776.039 303.571 780.194 296.895C780.15 296.895 784.306 279.387 783.51 271.031Z" fill="url(#paint10_linear)"/>
<path d="M761.228 243.796L764.632 269.572C764.632 269.572 755.79 273.639 749.645 269.395L750.971 254.319L761.228 243.796Z" fill="#F9B776"/>
<path d="M783.51 271.031C783.51 271.031 832.76 324.439 774.756 344.865V340.709C774.756 340.709 796.464 322.361 779.752 297.337C779.752 297.293 781.83 273.551 783.51 271.031Z" fill="url(#paint11_linear)"/>
<path d="M774.314 341.107C774.314 341.107 766.799 336.111 763.483 337.791C760.167 339.471 760.167 341.947 760.167 341.947C760.167 341.947 761.847 345.263 764.323 344.467C766.843 343.627 772.678 345.307 775.154 344.467C775.154 344.467 775.994 341.107 774.314 341.107Z" fill="#F9B776"/>
<path d="M693.145 248.261L703.755 251.843C705.037 252.24 705.921 253.523 706.01 255.158L705.479 272.843C705.656 275.629 703.357 278.06 701.191 277.397L692.703 274.523C691.863 274.258 691.332 273.418 691.332 272.313L691.155 250.295C691.111 249.057 692.172 247.996 693.145 248.261Z" fill="url(#paint12_linear)"/>
<path d="M691.111 271.031C691.111 271.031 687.795 260.42 689.475 258.607C691.155 256.839 694.515 251.887 694.736 255.91C694.957 259.978 696.991 277.397 691.111 271.031Z" fill="#F9B776"/>
<path d="M741.82 239.419C741.776 239.728 745.534 259.889 745.534 259.889L757.028 257.502L756.321 237.827C756.277 237.872 742.66 234.29 741.82 239.419Z" fill="url(#paint13_linear)"/>
<path d="M752.873 241.055C753.315 241.32 753.624 241.806 753.669 242.293L754.862 252.461C754.862 252.594 754.862 252.771 754.862 252.904C754.73 253.744 754.067 256.396 751.325 255.601C749.027 254.893 746.86 254.274 745.269 254.584C744.34 254.761 743.766 255.645 743.942 256.573C744.296 258.474 745.092 262.277 746.286 265.548C746.595 266.388 747.479 266.83 748.319 266.565C750.53 265.946 754.862 264.62 758.134 262.719C758.664 262.409 759.018 261.834 758.974 261.216C758.885 258.474 758.753 250.826 759.018 248.659C759.283 246.625 761.715 245.432 762.864 244.99C763.306 244.813 763.66 244.459 763.837 244.017C764.367 242.691 764.942 239.949 761.494 238.711C760.654 238.402 760.212 237.429 760.521 236.589C761.052 235.042 761.184 232.831 758.443 231.549C755.658 230.223 753.492 231.593 752.254 232.831C751.723 233.362 750.839 233.539 750.176 233.141C749.867 232.964 749.513 232.92 749.071 233.141C748.231 233.539 747.258 233.273 746.86 232.433C746.153 231.019 744.738 229.56 741.953 230.002C736.825 230.798 736.161 236.457 737.444 239.817C738.726 243.177 744.252 241.983 747.037 240.347C749.027 239.065 751.635 240.303 752.873 241.055Z" fill="url(#paint14_linear)"/>
<path d="M758.841 252.064C758.841 252.064 757.382 246.493 759.593 245.078C761.759 243.663 764.986 244.459 764.19 248.748C763.218 254.053 758.841 252.064 758.841 252.064Z" fill="#F9B776"/>
<path d="M736.426 236.324C736.338 236.324 736.294 236.28 736.249 236.236C734.393 232.257 738.725 229.073 738.769 229.029C738.858 228.985 738.946 228.985 739.035 229.073C739.079 229.162 739.079 229.25 738.99 229.339C738.946 229.383 734.835 232.389 736.559 236.103C736.603 236.191 736.559 236.28 736.47 236.324C736.47 236.324 736.471 236.324 736.426 236.324Z" fill="white"/>
<path d="M657.384 251.394V287.869C657.384 290.831 655.571 293.263 653.317 293.263H520.465C518.608 293.263 516.972 294.943 516.53 297.33L514.143 310.019C513.834 311.699 512.065 311.832 511.623 310.24L508.573 299.497C507.954 297.419 506.45 296.048 504.77 296.048H499.067C496.813 296.048 495 293.661 495 290.654V253.162C495 250.2 496.768 247.813 499.023 247.768L653.317 246C655.571 246 657.384 248.432 657.384 251.394Z" fill="#4387BB"/>
<path d="M515.558 286.587C524.567 286.587 531.871 279.105 531.871 269.875C531.871 260.645 524.567 253.163 515.558 253.163C506.548 253.163 499.244 260.645 499.244 269.875C499.244 279.105 506.548 286.587 515.558 286.587Z" fill="url(#paint15_linear)"/>
<path d="M521.482 263.11C521.482 266.117 519.05 269.344 516.044 269.344C513.037 269.344 510.606 266.117 510.606 263.11C510.606 260.104 513.037 257.982 516.044 257.982C519.05 257.937 521.482 260.104 521.482 263.11Z" fill="white"/>
<path d="M509.28 280.928H522.543C523.958 280.928 525.196 280.044 525.594 278.673L526.301 276.418C526.832 274.782 525.992 273.014 524.356 272.439C518.962 270.45 513.347 270.715 507.644 272.616C506.053 273.146 505.169 274.871 505.611 276.507L506.141 278.54C506.583 279.955 507.821 280.928 509.28 280.928Z" fill="white"/>
<path d="M644.695 274.252C644.695 275.976 643.237 277.435 641.38 277.435H544.383C542.57 277.435 541.067 276.02 541.067 274.252C541.067 272.527 542.526 271.068 544.383 271.068H641.38C643.237 271.068 644.695 272.483 644.695 274.252Z" fill="white"/>
<path d="M598.761 284.376C598.761 285.968 597.479 287.25 595.887 287.25H545.046C543.454 287.25 542.172 285.968 542.172 284.376C542.172 282.785 543.454 281.503 545.046 281.503H595.887C597.479 281.503 598.761 282.785 598.761 284.376Z" fill="white"/>
<path d="M644.74 284.376C644.74 285.968 643.457 287.25 641.866 287.25H605.172C603.58 287.25 602.298 285.968 602.298 284.376C602.298 282.785 603.58 281.503 605.172 281.503H641.866C643.457 281.503 644.74 282.785 644.74 284.376Z" fill="white"/>
<path d="M597.877 258.91C597.877 261.121 596.064 262.933 593.854 262.933H544.913C542.703 262.933 540.89 261.121 540.89 258.91V258.601C540.89 256.39 542.703 254.577 544.913 254.577H593.854C596.064 254.577 597.877 256.39 597.877 258.601V258.91Z" fill="white"/>
<path d="M236.447 270.588C236.403 302.642 236.182 413.261 234.237 452.389C234.016 456.544 231.098 459.816 227.561 459.86C210.01 460.126 145.64 460.435 116.991 458.357C111.023 457.915 106.381 452.167 106.425 445.182C106.558 411.536 107.354 316.878 111.421 273.594C111.907 268.422 115.488 264.354 119.909 263.912C139.052 262.099 203.776 258.076 228.534 260.508C233.043 260.994 236.491 265.371 236.447 270.588Z" fill="url(#paint16_linear)"/>
<path d="M228.401 280.27C228.755 306.179 229.86 392.304 228.18 424.093C227.959 428.735 224.732 432.449 220.753 432.626C204.395 433.377 148.557 434.615 124.596 431.83C120.307 431.344 116.991 427.188 116.859 422.103C116.24 395.664 114.516 315.463 116.107 284.028C116.372 279.032 119.777 274.965 124.065 274.611C141.793 273.152 201.168 270.057 221.504 271.782C225.395 272.135 228.357 275.761 228.401 280.27Z" fill="white"/>
<path opacity="0.5" d="M193.21 265.371C193.21 266.344 192.502 267.139 191.662 267.184C187.507 267.36 175.835 267.803 170.618 268.024C169.602 268.068 168.806 266.963 169.027 265.813L169.071 265.592C169.204 264.796 169.823 264.177 170.53 264.133C174.067 263.823 184.721 263.028 191.795 263.47C192.591 263.558 193.21 264.398 193.21 265.371Z" fill="white"/>
<path d="M172.298 393.631C195.03 393.631 213.458 375.202 213.458 352.469C213.458 329.736 195.03 311.307 172.298 311.307C149.566 311.307 131.139 329.736 131.139 352.469C131.139 375.202 149.566 393.631 172.298 393.631Z" fill="url(#paint17_linear)"/>
<path d="M197.631 363.213C197.012 361.002 195.42 359.234 193.298 358.394L190.336 357.2C187.949 356.271 185.252 357.023 183.705 359.057L181.052 362.594C176.896 362.726 172.122 361.179 167.922 357.996C163.943 355.033 161.202 351.187 160.008 347.429C160.008 347.385 160.008 347.296 160.052 347.296C160.096 347.252 160.141 347.252 160.185 347.296L162.572 344.113C164.341 341.77 164.296 338.498 162.44 336.199L160.494 333.723C159.08 331.91 156.869 330.894 154.57 330.938C152.271 330.982 150.105 332.087 148.734 333.9C148.027 334.873 147.496 335.934 147.187 337.083C145.021 344.776 151.21 356.448 162.661 365.025C174.111 373.603 187.02 376.255 193.829 372.011C194.846 371.348 195.73 370.552 196.481 369.623C197.808 367.767 198.25 365.423 197.631 363.213Z" fill="white"/>
<path d="M54.2127 456.235C54.2127 456.235 53.3727 461.054 52.9306 465.829C52.7537 467.686 54.2127 469.322 56.0695 469.41C62.4357 469.676 76.0083 470.206 80.8714 469.985C81.623 469.941 82.0651 469.189 81.7998 468.526C81.5787 467.951 81.1366 467.509 80.5619 467.244L58.1031 456.942L54.2127 456.235Z" fill="url(#paint18_linear)"/>
<path d="M53.5498 453.406L54.213 459.153C54.213 459.153 58.1477 460.966 60.8445 458.932L59.2087 452.521L53.5498 453.406Z" fill="#F9B776"/>
<path d="M54.0359 345.086C53.7265 346.589 52.4444 420.202 60.3138 453.184C60.4464 453.715 60.1811 454.29 59.6506 454.467C58.4569 454.953 56.0696 455.66 53.2401 455.749C52.3559 455.793 51.5602 455.218 51.3391 454.378C49.0844 446.729 38.2971 408.397 36.9266 371.746C35.335 330.805 36.9266 370.331 36.9266 370.331L37.855 345.041L54.0359 345.086Z" fill="url(#paint19_linear)"/>
<path d="M28.3941 458.755C28.3941 458.755 27.0236 461.187 25.7415 467.642C25.5204 468.791 26.3162 469.941 27.5099 470.029C29.5878 470.25 32.8151 470.516 35.4235 470.471C36.6172 470.471 37.5456 469.41 37.4129 468.261C37.1477 465.918 36.2193 462.027 33.4782 459.021L28.3941 458.755Z" fill="url(#paint20_linear)"/>
<path d="M27.2446 451.327L28.8362 460.037C28.8362 460.037 30.4278 461.231 33.5225 460.347L32.7709 450.974L27.2446 451.327Z" fill="#F9B776"/>
<path d="M22.9121 347.34C16.4574 386.159 24.3268 443.325 26.9352 454.511C27.1121 455.174 27.6426 455.704 28.35 455.837C29.5436 456.014 31.4889 456.191 33.3899 455.616C34.0531 455.439 34.4952 454.82 34.5394 454.157C34.8931 445.094 34.2741 389.607 40.2425 367.678C40.552 366.573 41.2151 365.6 42.1435 364.937L53.7708 356.669L54.655 343.317L22.9121 347.34Z" fill="url(#paint21_linear)"/>
<path d="M63.8951 273.771C44.6195 273.462 23.3544 278.855 23.3544 278.855C17.607 312.368 22.3375 351.054 22.3375 351.054C37.2806 354.989 54.0804 348.667 54.0804 348.667C56.6004 334.607 68.1835 295.17 68.1835 295.17C77.6002 294.02 85.3812 291.279 91.7475 287.698C86.8844 282.039 84.5854 274.876 83.5686 270.588C76.7602 272.71 69.8635 273.86 63.8951 273.771Z" fill="#7346F2"/>
<path d="M120.838 245.343C118.936 243.044 116.549 244.149 116.549 244.149C113.72 256.13 98.8209 265.857 83.5684 270.588C84.5852 274.832 86.8841 282.039 91.7472 287.698C117.08 273.417 120.838 245.343 120.838 245.343Z" fill="#F9B776"/>
<path d="M120.395 245.917C120.572 246.536 118.317 247.509 116.947 244.945C116.903 243.707 116.151 238.401 116.903 237.429C120.837 232.079 128.442 225.359 128.442 225.359C129.724 226.641 128.663 227.879 128.663 227.879L124.949 231.725C125.701 233.14 126.673 234.29 127.115 236.014C127.469 237.296 127.248 238.667 126.585 239.816C125.922 240.966 125.037 242.513 124.197 243.707C122.65 245.917 120.395 245.917 120.395 245.917Z" fill="url(#paint22_linear)"/>
<path d="M123.358 234.201L119.998 237.075L118.937 239.905L121.943 243.221C121.943 243.221 122.96 237.561 123.711 236.368C124.419 235.174 124.065 234.555 123.358 234.201Z" fill="url(#paint23_linear)"/>
<path d="M30.7372 297.469L23.3541 278.811C23.3541 278.811 5.36052 291.058 2.39844 306.577C5.80262 306.842 11.5057 307.77 17.5625 310.821C20.3036 304.676 30.7372 297.469 30.7372 297.469Z" fill="#6B3CF0"/>
<path d="M44.354 258.12L38.2088 275.849C38.1203 276.159 38.2088 276.468 38.5182 276.601C40.1982 277.529 46.2108 280.182 53.4613 275.584C54.2128 275.098 54.7434 274.302 54.8318 273.417L56.8212 258.076H44.354V258.12Z" fill="#F9B776"/>
<path d="M57.7053 241.673C57.7053 241.673 64.4253 254.362 63.5853 259.491C62.7011 264.619 54.3896 264.266 47.0949 260.065L42.0107 246.36L57.7053 241.673Z" fill="#F9B776"/>
<path d="M47.4043 253.345C47.7137 253.213 47.8022 252.859 47.6253 252.594C47.0948 251.754 46.078 250.073 45.7685 248.614C45.7685 248.614 44.5748 247.819 48.8632 246.802C53.1516 245.785 59.5621 244.193 60.8884 240.524C62.2147 236.942 58.7663 228.012 53.24 235.13C53.019 235.395 52.6211 235.395 52.4 235.13C51.5158 233.936 49.1285 231.504 45.8569 233.008C42.7622 234.378 42.4085 236.633 42.4527 237.782C42.4527 238.136 42.1875 238.357 41.8338 238.313C40.2864 238.004 36.5286 237.782 34.8044 241.585C33.3897 244.724 34.3181 246.536 35.1581 247.421C35.4233 247.686 35.3349 248.172 34.937 248.305C33.9202 248.614 32.5939 249.499 32.7265 251.886C32.9033 255.202 36.617 254.893 37.678 254.76C37.8549 254.716 38.0317 254.804 38.1201 254.937C39.0043 255.954 43.1159 260.198 47.4927 260.684C47.8906 260.729 48.1558 260.331 48.0674 259.977L46.1664 254.406C46.078 254.141 46.2106 253.876 46.4317 253.743L47.4043 253.345Z" fill="url(#paint24_linear)"/>
<path d="M48.2006 254.141C48.2006 254.141 43.4259 250.869 43.0722 253.61C42.7185 256.396 47.4048 257.634 49.7037 256.573L48.2006 254.141Z" fill="url(#paint25_linear)"/>
<path d="M2.48702 306.709C2.48702 306.709 -9.80341 334.74 20.2595 338.852L24.3711 335.447C24.3711 335.447 9.3396 327.224 17.5185 310.821C17.5627 310.821 8.67645 303.305 2.48702 306.709Z" fill="#F9B776"/>
<path d="M24.1055 321.476L34.716 325.057C35.9981 325.455 36.8823 326.738 36.9707 328.373L36.4402 346.058C36.617 348.844 34.3181 351.275 32.1518 350.612L23.6634 347.738C22.8234 347.473 22.2929 346.633 22.2929 345.528L22.1161 323.51C22.0719 322.228 23.1329 321.167 24.1055 321.476Z" fill="white"/>
<path d="M21.3647 342.433C21.0994 342.123 19.1099 338.498 19.5962 333.635C20.1268 328.771 19.1541 326.605 21.4089 326.782C23.6636 326.959 25.5204 327.356 25.2994 329.744C25.0783 332.131 25.7857 347.296 21.3647 342.433Z" fill="#F9B776"/>
<path d="M580.446 315.463C580.446 315.463 575.096 309.052 582.391 305.073C589.686 301.094 601.136 305.471 602.595 313.872C604.054 322.272 611.304 317.276 614.443 315.463C617.582 313.606 626.424 311.13 628.679 320.724C629.563 324.527 628.458 329.39 630.094 332.927C632.348 337.79 639.776 336.552 643.843 338.409C649.104 340.841 651.845 345.528 649.104 351.01C644.904 359.454 636.593 364.804 641.058 372.143C645.523 379.482 627.485 395.929 621.296 380.676C615.107 365.423 605.513 367.987 597.732 367.015C589.951 366.042 586.016 359.322 588.138 352.469C590.26 345.616 587.475 341.548 584.602 338.63C581.728 335.712 571.913 323.245 580.446 315.463Z" fill="#25296F"/>
<path d="M569.172 397.433C569.172 397.433 563.337 398.361 556.749 402.738C555.732 403.446 555.158 404.639 555.29 405.877C556.086 412.111 559.314 432.316 570.012 452.035C570.587 453.096 570.72 454.29 570.499 455.439L568.642 464.061L565.193 467.288H574.035L579.915 451.327L577.395 450.532C575.45 449.913 574.08 448.1 574.08 446.066L573.77 428.956C574.035 421.307 569.084 416.046 569.084 416.046L583.231 415.339L569.172 397.433Z" fill="#F9B776"/>
<path d="M561.745 468.836C560.949 469.897 570.41 471.267 575.229 468.968C575.229 468.968 581.861 457.385 581.861 451.46C581.861 451.46 581.33 450.266 577.44 450.532C577.44 450.532 575.229 464.237 572.842 465.741C570.454 467.244 566.254 465.917 566.254 465.917C566.254 465.917 562.939 467.288 561.745 468.836Z" fill="url(#paint26_linear)"/>
<path d="M581.463 416.267C581.375 416.134 566.21 414.454 566.21 414.454C566.21 414.454 566.697 419.052 565.149 425.419C563.602 431.786 541.32 459.241 541.32 459.241L543.663 466.625C536.457 469.145 529.339 469.543 522.354 467.907L536.811 459.241C536.811 459.241 550.339 413.128 558.651 404.86L573.859 399.599L581.463 416.267Z" fill="#F9B776"/>
<path d="M615.46 389.43C615.46 389.43 624.214 402.429 624.921 408.353C625.628 414.278 622.534 416.709 613.382 417.063C604.231 417.461 579.738 417.461 579.738 417.461L558.871 399.599C558.871 399.599 574.079 394.161 578.058 392.614C581.993 391.11 615.46 389.43 615.46 389.43Z" fill="url(#paint27_linear)"/>
<path d="M542.823 464.149C542.823 464.149 545.343 466.581 543.619 469.278C543.619 469.278 523.724 472.814 518.331 471.223C518.331 471.223 519.436 468.659 525.537 465.741L525.095 466.094C524.52 466.536 524.874 467.421 525.581 467.376C529.604 467.155 537.871 466.448 542.823 464.149Z" fill="url(#paint28_linear)"/>
<path d="M591.852 387.706C591.852 387.706 581.684 378.024 576.688 371.613C573.991 368.164 573.151 363.566 574.389 359.366C576.688 351.673 580.755 343.671 581.109 342.433C581.684 340.532 593.09 340.62 593.09 340.62C593.09 340.62 615.549 355.166 624.347 379.88L614.444 382.975C614.444 382.975 608.564 373.16 602.816 366.882C602.816 366.882 612.852 380.102 613.206 385.54L591.852 387.706Z" fill="url(#paint29_linear)"/>
<path d="M579.694 331.822C579.827 332.22 582.789 342.079 583.01 342.3C583.231 342.521 589.553 342.831 592.515 340.797L587.475 330.274L579.694 331.822Z" fill="#F9B776"/>
<path d="M584.602 311.086C584.602 311.086 579.208 313.341 575.583 321.122C571.913 328.904 574.654 332.485 578.103 332.971C581.551 333.458 586.635 333.369 592.073 328.373C597.467 323.333 591.587 308.389 584.602 311.086Z" fill="#F9B776"/>
<path d="M588.404 324.217C588.404 324.217 592.471 312.855 582.391 312.722L580.004 314.358C580.004 314.358 576.29 308.08 582.391 305.073C588.448 302.067 597.511 304.764 600.075 312.899C602.639 321.078 601.136 326.339 596.848 330.274C592.559 334.165 590.791 329.744 590.791 329.744C590.791 329.744 593.134 326.074 592.161 324.129C591.189 322.184 589.023 324.527 589.023 324.527L588.404 324.217Z" fill="#25296F"/>
<path d="M589.553 325.455C589.553 325.455 591.587 319.619 594.328 321.918C597.069 324.262 592.117 327.312 590.172 328.329L589.553 325.455Z" fill="url(#paint30_linear)"/>
<path d="M571.118 388.413L578.589 381.207L588.934 385.584C588.934 385.584 599.235 387.175 605.115 385.584C610.995 383.992 610.995 383.992 610.995 383.992L624.302 379.836L626.38 385.761C626.911 387.264 626.38 388.944 625.098 389.828C623.949 390.668 622.578 391.552 621.738 391.906C619.97 392.658 578.545 391.376 578.545 391.376L571.118 388.413Z" fill="url(#paint31_linear)"/>
<path d="M625.408 324.88L625.054 324.836C625.364 322.007 624.877 320.15 623.639 319.089C621.119 317.011 615.858 318.647 611.26 320.061C608.917 320.769 606.707 321.476 605.159 321.565C603.966 321.609 603.037 321.299 602.33 320.636C601.092 319.398 601.181 317.364 601.181 317.276H601.534C601.534 317.276 601.446 319.221 602.595 320.371C603.214 320.99 604.054 321.255 605.159 321.211C606.663 321.122 608.873 320.459 611.172 319.752C615.858 318.293 621.208 316.613 623.86 318.823C625.231 319.973 625.761 321.962 625.408 324.88Z" fill="white"/>
<path d="M636.416 367.457C635.576 364.052 637.831 361.134 640.439 357.819C642.296 355.431 644.418 352.69 645.568 349.418C646.098 347.871 646.01 346.412 645.214 345.13C642.782 341.195 634.736 340.045 634.692 340.001L634.736 339.647C635.09 339.692 643.003 340.841 645.523 344.909C646.363 346.279 646.496 347.827 645.921 349.462C644.772 352.778 642.606 355.564 640.749 357.995C638.185 361.267 636.018 364.097 636.814 367.368L636.416 367.457Z" fill="white"/>
<path d="M600.208 425.817H596.273V468.393H600.208V425.817Z" fill="#4387BB"/>
<path d="M615.46 469.189H580.977C580.977 467.774 582.126 466.625 583.541 466.625H612.896C614.311 466.625 615.46 467.774 615.46 469.189Z" fill="#4387BB"/>
<path d="M620.589 424.314C620.589 426.657 618.688 428.558 616.345 428.558H581.463C579.12 428.558 577.219 426.657 577.219 424.314V420.467C577.219 418.124 579.12 416.223 581.463 416.223H616.345C618.688 416.223 620.589 418.124 620.589 420.467V424.314Z" fill="#4387BB"/>
<path d="M599.412 391.818C599.368 391.818 599.368 391.818 599.324 391.818L555.954 391.774C554.893 391.774 554.008 390.889 554.008 389.828C554.008 388.767 554.893 387.883 555.954 387.883L599.324 387.927C600.385 387.927 601.269 388.811 601.269 389.872C601.269 390.934 600.429 391.774 599.412 391.818Z" fill="white"/>
<path d="M517.005 352.469H553.124C555.777 352.469 558.209 354.016 559.358 356.404L576.069 391.774H531.196C529.472 391.774 527.925 390.712 527.306 389.121L514.352 356.36C513.556 354.503 514.971 352.469 517.005 352.469Z" fill="white"/>
<path d="M660.024 393.409C660.113 392.923 659.98 392.393 659.627 392.039C659.273 391.641 658.787 391.42 658.256 391.42H477.348C476.641 391.42 475.978 391.774 475.624 392.304C475.226 392.879 475.182 393.542 475.491 394.161L477.436 398.14C477.879 399.069 478.851 399.643 479.912 399.643H656.974C657.991 399.643 658.831 398.98 659.008 398.052L660.024 393.409Z" fill="#4387BB"/>
<path d="M487.472 477.236C487.251 477.236 487.03 477.192 486.853 477.103C486.057 476.749 485.659 475.777 486.013 474.981L519.303 395.797C519.657 394.957 520.586 394.603 521.381 394.957C522.177 395.311 522.575 396.283 522.221 397.079L488.931 476.263C488.71 476.882 488.091 477.236 487.472 477.236Z" fill="#4387BB"/>
<path d="M525.007 477.236C524.388 477.236 523.813 476.882 523.548 476.263L490.258 397.079C489.904 396.239 490.302 395.311 491.098 394.957C491.894 394.603 492.822 395.001 493.176 395.797L526.466 474.981C526.82 475.821 526.422 476.749 525.626 477.103C525.405 477.192 525.184 477.236 525.007 477.236Z" fill="#4387BB"/>
<path d="M618.6 477.236C618.378 477.236 618.157 477.192 617.981 477.103C617.185 476.749 616.787 475.777 617.141 474.981L650.431 395.797C650.785 394.957 651.713 394.603 652.509 394.957C653.305 395.311 653.702 396.283 653.349 397.079L620.058 476.263C619.793 476.882 619.218 477.236 618.6 477.236Z" fill="#4387BB"/>
<path d="M656.09 477.236C655.471 477.236 654.896 476.882 654.631 476.263L621.341 397.079C620.987 396.239 621.385 395.311 622.181 394.957C622.977 394.603 623.905 395.001 624.259 395.797L657.549 474.981C657.903 475.821 657.505 476.749 656.709 477.103C656.532 477.192 656.311 477.236 656.09 477.236Z" fill="#4387BB"/>
<defs>
<linearGradient id="paint0_linear" x1="398.759" y1="44.3746" x2="401.002" y2="452" gradientUnits="userSpaceOnUse">
<stop stop-color="#9B79FB"/>
<stop offset="1" stop-color="#6737F0"/>
</linearGradient>
<linearGradient id="paint1_linear" x1="398.531" y1="-93.5509" x2="424.169" y2="515.34" gradientUnits="userSpaceOnUse">
<stop stop-color="#6A3BF0"/>
<stop offset="1" stop-color="#6A3BF0"/>
</linearGradient>
<linearGradient id="paint2_linear" x1="429.013" y1="-22.399" x2="383.763" y2="451.384" gradientUnits="userSpaceOnUse">
<stop stop-color="#8C66F8"/>
<stop offset="0.742682" stop-color="#6939F1"/>
</linearGradient>
<linearGradient id="paint3_linear" x1="689.372" y1="183.191" x2="748.494" y2="430.524" gradientUnits="userSpaceOnUse">
<stop stop-color="#53D8FF"/>
<stop offset="1" stop-color="#3840F7"/>
</linearGradient>
<linearGradient id="paint4_linear" x1="768.193" y1="520.745" x2="769.191" y2="490.824" gradientUnits="userSpaceOnUse">
<stop stop-color="#7C27DD"/>
<stop offset="1" stop-color="#2B41D9"/>
</linearGradient>
<linearGradient id="paint5_linear" x1="803.742" y1="444.17" x2="742.097" y2="492.572" gradientUnits="userSpaceOnUse">
<stop stop-color="#53D8FF"/>
<stop offset="1" stop-color="#3840F7"/>
</linearGradient>
<linearGradient id="paint6_linear" x1="767.007" y1="444.91" x2="770.353" y2="474.113" gradientUnits="userSpaceOnUse">
<stop stop-color="#F9B776"/>
<stop offset="1" stop-color="#F47960"/>
</linearGradient>
<linearGradient id="paint7_linear" x1="710.201" y1="458.536" x2="769.814" y2="505.342" gradientUnits="userSpaceOnUse">
<stop stop-color="#53D8FF"/>
<stop offset="1" stop-color="#3840F7"/>
</linearGradient>
<linearGradient id="paint8_linear" x1="727.392" y1="539.248" x2="726.395" y2="509.327" gradientUnits="userSpaceOnUse">
<stop stop-color="#7C27DD"/>
<stop offset="1" stop-color="#2B41D9"/>
</linearGradient>
<linearGradient id="paint9_linear" x1="731.759" y1="448.646" x2="734.889" y2="475.963" gradientUnits="userSpaceOnUse">
<stop stop-color="#F9B776"/>
<stop offset="1" stop-color="#F47960"/>
</linearGradient>
<linearGradient id="paint10_linear" x1="728.873" y1="173.772" x2="787.987" y2="421.075" gradientUnits="userSpaceOnUse">
<stop stop-color="#53D8FF"/>
<stop offset="1" stop-color="#3840F7"/>
</linearGradient>
<linearGradient id="paint11_linear" x1="751.03" y1="168.475" x2="810.145" y2="415.779" gradientUnits="userSpaceOnUse">
<stop stop-color="#53D8FF"/>
<stop offset="1" stop-color="#3840F7"/>
</linearGradient>
<linearGradient id="paint12_linear" x1="706.187" y1="256.447" x2="691.46" y2="262.669" gradientUnits="userSpaceOnUse">
<stop stop-color="#2B3582"/>
<stop offset="1" stop-color="#150E42"/>
</linearGradient>
<linearGradient id="paint13_linear" x1="746.366" y1="240.294" x2="764.649" y2="274.795" gradientUnits="userSpaceOnUse">
<stop stop-color="#F9B776"/>
<stop offset="1" stop-color="#F47960"/>
</linearGradient>
<linearGradient id="paint14_linear" x1="762.926" y1="250.543" x2="735.161" y2="246.063" gradientUnits="userSpaceOnUse">
<stop stop-color="#2B3582"/>
<stop offset="1" stop-color="#150E42"/>
</linearGradient>
<linearGradient id="paint15_linear" x1="499.15" y1="245.553" x2="535.463" y2="299.306" gradientUnits="userSpaceOnUse">
<stop stop-color="#A789FC"/>
<stop offset="1" stop-color="#6737F0"/>
</linearGradient>
<linearGradient id="paint16_linear" x1="236.576" y1="360.963" x2="107.588" y2="358.112" gradientUnits="userSpaceOnUse">
<stop stop-color="#2B3582"/>
<stop offset="1" stop-color="#150E42"/>
</linearGradient>
<linearGradient id="paint17_linear" x1="171.113" y1="270.772" x2="173.168" y2="411.897" gradientUnits="userSpaceOnUse">
<stop stop-color="#9876FB"/>
<stop offset="1" stop-color="#6737F0"/>
</linearGradient>
<linearGradient id="paint18_linear" x1="80.2003" y1="449.581" x2="-1.97494" y2="538.961" gradientUnits="userSpaceOnUse">
<stop stop-color="#2B3582"/>
<stop offset="1" stop-color="#150E42"/>
</linearGradient>
<linearGradient id="paint19_linear" x1="40.306" y1="449.73" x2="56.4355" y2="356.03" gradientUnits="userSpaceOnUse">
<stop stop-color="#2B3582"/>
<stop offset="1" stop-color="#150E42"/>
</linearGradient>
<linearGradient id="paint20_linear" x1="61.7662" y1="432.634" x2="-20.4078" y2="522.013" gradientUnits="userSpaceOnUse">
<stop stop-color="#2B3582"/>
<stop offset="1" stop-color="#150E42"/>
</linearGradient>
<linearGradient id="paint21_linear" x1="22.0693" y1="446.591" x2="38.1988" y2="352.89" gradientUnits="userSpaceOnUse">
<stop stop-color="#2B3582"/>
<stop offset="1" stop-color="#150E42"/>
</linearGradient>
<linearGradient id="paint22_linear" x1="112.545" y1="259.543" x2="87.5215" y2="316.474" gradientUnits="userSpaceOnUse">
<stop stop-color="#F9B776"/>
<stop offset="1" stop-color="#F47960"/>
</linearGradient>
<linearGradient id="paint23_linear" x1="120.673" y1="240.582" x2="131.114" y2="224.53" gradientUnits="userSpaceOnUse">
<stop stop-color="#F9B776"/>
<stop offset="1" stop-color="#F47960"/>
</linearGradient>
<linearGradient id="paint24_linear" x1="28.9901" y1="-1669.5" x2="28.1737" y2="-1756.51" gradientUnits="userSpaceOnUse">
<stop stop-color="#2B3582"/>
<stop offset="1" stop-color="#150E42"/>
</linearGradient>
<linearGradient id="paint25_linear" x1="55.9099" y1="260.96" x2="37.4529" y2="249.703" gradientUnits="userSpaceOnUse">
<stop stop-color="#F9B776"/>
<stop offset="1" stop-color="#F47960"/>
</linearGradient>
<linearGradient id="paint26_linear" x1="522.787" y1="31.6154" x2="526.819" y2="66.8944" gradientUnits="userSpaceOnUse">
<stop stop-color="#CB236D"/>
<stop offset="1" stop-color="#4C246D"/>
</linearGradient>
<linearGradient id="paint27_linear" x1="589.062" y1="397.385" x2="623.334" y2="464.414" gradientUnits="userSpaceOnUse">
<stop stop-color="#2B3582"/>
<stop offset="1" stop-color="#150E42"/>
</linearGradient>
<linearGradient id="paint28_linear" x1="481.817" y1="36.3056" x2="485.849" y2="71.584" gradientUnits="userSpaceOnUse">
<stop stop-color="#CB236D"/>
<stop offset="1" stop-color="#4C246D"/>
</linearGradient>
<linearGradient id="paint29_linear" x1="587.998" y1="348.658" x2="619.385" y2="416.967" gradientUnits="userSpaceOnUse">
<stop stop-color="#4997C7"/>
<stop offset="1" stop-color="#21347B"/>
</linearGradient>
<linearGradient id="paint30_linear" x1="577.55" y1="315.165" x2="603.646" y2="332.89" gradientUnits="userSpaceOnUse">
<stop stop-color="#F9B776"/>
<stop offset="1" stop-color="#F47960"/>
</linearGradient>
<linearGradient id="paint31_linear" x1="605.715" y1="386.019" x2="661.199" y2="386.019" gradientUnits="userSpaceOnUse">
<stop stop-color="#F9B776"/>
<stop offset="1" stop-color="#F47960"/>
</linearGradient>
</defs>
</svg>
