<svg width="23" height="34" viewBox="0 0 23 34" fill="none" xmlns="http://www.w3.org/2000/svg">
<path d="M17.6754 11.4879C17.6754 8.06069 14.8873 5.27246 11.46 5.27246C8.03279 5.27246 5.24463 8.06062 5.24463 11.4879C5.24463 14.915 8.03279 17.7032 11.46 17.7032C14.8873 17.7032 17.6754 14.915 17.6754 11.4879ZM7.978 12.484V10.4917H10.4639V8.0057H12.4563V10.4917H14.9422V12.484H12.4563V14.97H10.4639V12.484H7.978Z" fill="white"/>
<path d="M22.9201 11.4601C22.9201 5.141 17.7791 0 11.46 0C5.14086 0 0 5.141 0 11.4601C0 18.6873 9.01837 26.5611 11.4601 28.5599C13.9016 26.5612 22.9201 18.6873 22.9201 11.4601ZM3.25231 11.4878C3.25231 6.96207 6.93424 3.28007 11.4601 3.28007C15.9859 3.28007 19.6678 6.962 19.6678 11.4878C19.6678 16.0135 15.9859 19.6955 11.4601 19.6955C6.93424 19.6955 3.25231 16.0136 3.25231 11.4878Z" fill="white"/>
<path d="M20.3939 28.9699C19.8505 28.6487 19.1018 28.3676 18.1686 28.1343C17.3771 27.9364 16.474 27.7778 15.4968 27.6619C13.5971 29.4566 12.1504 30.5609 12.0622 30.6279L11.4599 31.0852L10.8575 30.6279C10.7694 30.5609 9.32267 29.4566 7.4229 27.6619C6.44578 27.7778 5.54265 27.9364 4.75116 28.1343C3.81794 28.3676 3.06928 28.6487 2.52583 28.9699C1.5274 29.5601 1.31787 30.246 1.31787 30.7175C1.31787 31.1889 1.52747 31.8749 2.52583 32.465C3.06928 32.7862 3.81794 33.0673 4.75116 33.3006C6.5553 33.7516 8.93782 34 11.4599 34C13.9819 34 16.3644 33.7516 18.1686 33.3006C19.1018 33.0673 19.8505 32.7862 20.3939 32.465C21.3923 31.8748 21.6019 31.1889 21.6019 30.7175C21.6019 30.246 21.3923 29.5601 20.3939 28.9699Z" fill="white"/>
</svg>
