<svg width="139" height="47" viewBox="0 0 139 47" fill="none" xmlns="http://www.w3.org/2000/svg">
<path d="M5.93912 30.8207C5.99552 30.7541 6.02116 30.6618 6.08269 30.6003C6.28265 30.3952 6.46211 30.1747 6.6467 29.9593C7.44144 28.8672 8.09775 27.6879 8.86686 26.5804C8.93864 26.4779 9.01555 26.3804 9.08734 26.2779C8.54896 26.0318 8.09775 25.7498 7.75421 25.4267C7.04151 24.755 6.68259 23.8783 6.68259 22.7861C6.68259 21.4428 7.25686 20.3763 8.41052 19.5969C9.55906 18.8175 11.1332 18.4227 13.1328 18.4227C15.635 18.4227 18.0705 19.1149 20.4496 20.4993C21.7622 21.2633 23.4389 20.7403 24.0439 19.3508C24.5413 18.2125 24.1516 16.864 23.1056 16.1923C22.0442 15.5052 20.8649 14.9361 19.578 14.4849C17.5373 13.7722 15.3889 13.4133 13.1328 13.4133C9.35396 13.4133 6.30316 14.3003 3.98046 16.0846C1.65775 17.869 0.498962 20.1865 0.498962 23.0528C0.498962 25.3139 1.21167 27.1803 2.64734 28.657C3.48823 29.5235 4.606 30.2362 5.93912 30.8207Z" fill="white"/>
<path d="M23.3466 31.4206C21.9161 29.9644 19.6549 28.8928 16.5734 28.1955L15.2197 27.8878C14.7993 28.4672 14.3635 29.0415 13.9584 29.6363C13.3072 30.59 12.7176 31.5744 12.0818 32.5281L14.2968 33.0204C16.1632 33.4562 17.4758 33.9946 18.2346 34.6509C18.9935 35.3021 19.3729 36.1891 19.3729 37.3222C19.3729 38.6246 18.8089 39.6347 17.6809 40.3525C16.5529 41.0652 14.9224 41.4242 12.7945 41.4242C9.47707 41.4242 6.47755 40.6909 3.79592 39.2194C2.4628 38.4913 0.801528 39.0656 0.206751 40.4653C-0.311115 41.6805 0.175987 43.0752 1.30914 43.7469C4.3343 45.5414 8.0978 46.4387 12.6048 46.4387C15.994 46.4387 18.7781 45.8235 20.9727 44.5929C24.4029 42.665 26.2231 38.44 25.1874 34.6457C24.849 33.3947 24.2337 32.323 23.3466 31.4206Z" fill="white"/>
<path d="M70.4263 31.195H48.2145C48.076 31.195 47.9684 31.3232 47.9786 31.4565C48.5272 38.0093 51.86 41.2857 57.9873 41.2857C60.6997 41.2857 63.2121 40.6243 65.5399 39.3066C66.8423 38.5682 68.4882 39.0861 69.0881 40.4602C69.5906 41.6088 69.1855 42.9675 68.1139 43.6238C67.0217 44.2955 65.7963 44.8595 64.4324 45.3261C62.2584 46.0645 60.0434 46.4336 57.7924 46.4336C52.7112 46.4336 48.7067 44.9775 45.7738 42.0702C42.8461 39.163 41.3797 35.1483 41.3797 30.026C41.3797 26.7701 42.0206 23.8834 43.3024 21.3607C44.5792 18.8483 46.384 16.8896 48.7067 15.5001C51.0294 14.1106 53.6649 13.4184 56.6183 13.4184C60.915 13.4184 64.294 14.8079 66.7449 17.587C69.1957 20.366 70.4212 24.2115 70.4212 29.1133V31.195H70.4263ZM50.7269 20.6121C49.2758 22.1503 48.3837 24.3295 48.0555 27.1444C48.0401 27.2829 48.1529 27.4162 48.2914 27.4162H64.5093C64.6426 27.4162 64.7554 27.2931 64.7452 27.1547C64.5811 24.3295 63.8376 22.1503 62.5096 20.607C61.1458 19.0226 59.223 18.233 56.7465 18.233C54.234 18.233 52.2292 19.0278 50.7269 20.6121Z" fill="white"/>
<path d="M112.158 14.2644C114.317 14.2644 115.768 16.4794 114.906 18.4586L104.108 43.2649C103.39 44.9108 101.765 45.9773 99.9703 45.9773C98.1706 45.9773 96.5401 44.9056 95.8274 43.2495L85.2188 18.6585C84.3215 16.582 85.8444 14.2644 88.1107 14.2644C89.3925 14.2644 90.5411 15.0386 91.0282 16.223L99.9139 38.0349C99.9908 38.2247 100.257 38.2247 100.334 38.0349L109.384 16.1154C109.851 14.9925 110.943 14.2644 112.158 14.2644Z" fill="white"/>
<path d="M134.862 0H135.58C137.467 0 139 1.53309 139 3.41997C139 5.30685 137.467 6.83994 135.58 6.83994H134.862C132.975 6.83994 131.442 5.30685 131.442 3.41997C131.442 1.53309 132.975 0 134.862 0ZM131.899 42.6855V17.4844C131.899 15.6693 133.37 14.1977 135.185 14.1977C137 14.1977 138.472 15.6693 138.472 17.4844V42.6855C138.472 44.5006 137 45.9722 135.185 45.9722C133.37 45.9722 131.899 44.5006 131.899 42.6855Z" fill="white"/>
<path d="M5.21625 30.4874L9.8309 24.2525C10.5539 23.2732 11.9998 23.0066 13.0817 23.6475C14.2199 24.3243 14.5071 25.7446 13.7123 26.7547L9.46172 32.4153L5.21625 30.4874Z" fill="white"/>
<path d="M15.1685 27.8571L10.5333 34.0766C9.80523 35.0508 9.96418 36.5121 10.8922 37.3633C11.8716 38.2606 13.3072 38.1273 14.0456 37.071L18.2398 31.3642L15.1685 27.8571Z" fill="white"/>
</svg>
