<svg width="178" height="179" viewBox="0 0 178 179" fill="none" xmlns="http://www.w3.org/2000/svg">
<g filter="url(#filter0_d)">
<circle cx="89" cy="79.5" r="59" fill="url(#paint0_linear)"/>
</g>
<path d="M117.036 92.7863C115.661 92.7863 114.404 92.4425 113.264 91.7549C112.125 91.0673 111.221 90.1538 110.553 89.0144H109.492V104.102C109.492 105.163 109.119 106.057 108.373 106.784C107.626 107.511 106.742 107.874 105.72 107.874H90.6326V106.813C91.7721 106.145 92.6856 105.242 93.3732 104.102C94.0608 102.963 94.4046 101.705 94.4046 100.33C94.4046 98.2478 93.6679 96.4699 92.1945 94.9964C90.721 93.523 88.9431 92.7863 86.8607 92.7863C84.7783 92.7863 83.0003 93.523 81.5269 94.9964C80.0535 96.4699 79.3168 98.2478 79.3168 100.33C79.3168 101.705 79.6606 102.963 80.3482 104.102C81.0358 105.242 81.9493 106.145 83.0887 106.813V107.874H68.001C66.9794 107.874 66.0953 107.511 65.3488 106.784C64.6023 106.057 64.229 105.163 64.229 104.102V89.0144H65.2899C65.9578 90.1538 66.8615 91.0673 68.001 91.7549C69.1404 92.4425 70.3977 92.7863 71.7729 92.7863C73.8553 92.7863 75.6332 92.0496 77.1067 90.5762C78.5801 89.1028 79.3168 87.3248 79.3168 85.2424C79.3168 83.16 78.5801 81.3821 77.1067 79.9086C75.6332 78.4352 73.8553 77.6985 71.7729 77.6985C70.3977 77.6985 69.1404 78.0423 68.001 78.7299C66.8615 79.4175 65.9578 80.331 65.2899 81.4705H64.229V66.3827C64.229 65.3611 64.6023 64.4771 65.3488 63.7305C66.0953 62.984 66.9794 62.6107 68.001 62.6107H83.0887V61.5499C81.9493 60.8819 81.0358 59.9782 80.3482 58.8388C79.6606 57.6993 79.3168 56.442 79.3168 55.0668C79.3168 52.9844 80.0535 51.2065 81.5269 49.7331C83.0003 48.2597 84.7783 47.5229 86.8607 47.5229C88.9431 47.5229 90.721 48.2597 92.1945 49.7331C93.6679 51.2065 94.4046 52.9844 94.4046 55.0668C94.4046 56.442 94.0608 57.6993 93.3732 58.8388C92.6856 59.9782 91.7721 60.8819 90.6326 61.5499V62.6107H105.72C106.742 62.6107 107.626 62.984 108.373 63.7305C109.119 64.4771 109.492 65.3611 109.492 66.3827V81.4705H110.553C111.221 80.331 112.125 79.4175 113.264 78.7299C114.404 78.0423 115.661 77.6985 117.036 77.6985C119.119 77.6985 120.897 78.4352 122.37 79.9086C123.843 81.3821 124.58 83.16 124.58 85.2424C124.58 87.3248 123.843 89.1028 122.37 90.5762C120.897 92.0496 119.119 92.7863 117.036 92.7863Z" fill="white"/>
<defs>
<filter id="filter0_d" x="0" y="0.5" width="178" height="178" filterUnits="userSpaceOnUse" color-interpolation-filters="sRGB">
<feFlood flood-opacity="0" result="BackgroundImageFix"/>
<feColorMatrix in="SourceAlpha" type="matrix" values="0 0 0 0 0 0 0 0 0 0 0 0 0 0 0 0 0 0 127 0"/>
<feOffset dy="10"/>
<feGaussianBlur stdDeviation="15"/>
<feColorMatrix type="matrix" values="0 0 0 0 0.384314 0 0 0 0 0.192157 0 0 0 0 0.933333 0 0 0 0.45 0"/>
<feBlend mode="normal" in2="BackgroundImageFix" result="effect1_dropShadow"/>
<feBlend mode="normal" in="SourceGraphic" in2="effect1_dropShadow" result="shape"/>
</filter>
<linearGradient id="paint0_linear" x1="89" y1="20.5" x2="89" y2="138.5" gradientUnits="userSpaceOnUse">
<stop stop-color="#1C2973"/>
<stop offset="1" stop-color="#6231EE"/>
</linearGradient>
</defs>
</svg>
