<svg width="180" height="228" viewBox="0 0 180 228" fill="none" xmlns="http://www.w3.org/2000/svg">
<path d="M146.032 217.93C153.767 213.43 160.538 207.449 165.959 200.33C171.381 193.212 175.346 185.094 177.628 176.442C179.911 167.79 180.465 158.773 179.261 149.906C178.056 141.04 175.115 132.497 170.607 124.768L89.4907 -14.2863C80.3754 -29.9008 65.4338 -41.2579 47.9493 -45.8618C30.4648 -50.4658 11.8677 -47.94 -3.75558 -38.8396C-11.4896 -34.3392 -18.2608 -28.3586 -23.6821 -21.2396C-29.1033 -14.1207 -33.0682 -6.00303 -35.3501 2.64925C-37.632 11.3015 -38.1862 20.3187 -36.9809 29.1853C-35.7757 38.0519 -32.8347 46.594 -28.326 54.3232L52.7905 193.377C61.906 208.991 76.8468 220.347 94.3303 224.95C111.814 229.554 130.41 227.029 146.032 217.93Z" fill="white" fill-opacity="0.03"/>
</svg>
