<svg width="32" height="22" viewBox="0 0 32 22" fill="none" xmlns="http://www.w3.org/2000/svg">
<path d="M21.2119 11.1642L31.9999 17.9842V4.05615L21.2119 11.1642Z" fill="white"/>
<path d="M0 4.05615V17.9842L10.788 11.1642L0 4.05615Z" fill="white"/>
<path d="M30.0006 0H2.00055C1.00255 0 0.210547 0.744001 0.0605469 1.702L16.0006 12.204L31.9406 1.702C31.7906 0.744001 30.9986 0 30.0006 0Z" fill="white"/>
<path d="M19.38 12.3721L16.55 14.2361C16.382 14.3461 16.192 14.4001 16 14.4001C15.808 14.4001 15.618 14.3461 15.45 14.2361L12.62 12.3701L0.0639648 20.3121C0.217965 21.2621 1.00597 22.0001 1.99997 22.0001H30C30.994 22.0001 31.782 21.2621 31.936 20.3121L19.38 12.3721Z" fill="white"/>
</svg>
