<svg width="178" height="179" viewBox="0 0 178 179" fill="none" xmlns="http://www.w3.org/2000/svg">
<g filter="url(#filter0_d)">
<circle cx="89" cy="79.5" r="59" fill="url(#paint0_linear)"/>
</g>
<path d="M115.95 58.5H61.05C59.3658 58.5 58 59.8754 58 61.5714V98.4286C58 100.125 59.3658 101.5 61.05 101.5H115.95C117.634 101.5 119 100.125 119 98.4286V61.5714C119 59.8754 117.634 58.5 115.95 58.5ZM74.775 86.8992V88.4464C74.775 88.8707 74.4338 89.2143 74.0125 89.2143H72.4875C72.0662 89.2143 71.725 88.8707 71.725 88.4464V86.8829C70.6489 86.8272 69.6024 86.449 68.735 85.7935C68.3633 85.5123 68.3443 84.9517 68.6807 84.6283L69.8006 83.5523C70.0647 83.2989 70.4573 83.2874 70.7662 83.4822C71.135 83.7145 71.5534 83.8393 71.9881 83.8393H74.6673C75.2868 83.8393 75.792 83.2711 75.792 82.5733C75.792 82.0022 75.4479 81.4992 74.9561 81.3514L70.667 80.0557C68.8952 79.5201 67.6571 77.8078 67.6571 75.891C67.6571 73.5375 69.4728 71.6256 71.724 71.5651V70.0179C71.724 69.5936 72.0653 69.25 72.4865 69.25H74.0115C74.4328 69.25 74.774 69.5936 74.774 70.0179V71.5814C75.8501 71.6371 76.8967 72.0143 77.764 72.6708C78.1357 72.952 78.1548 73.5126 77.8183 73.836L76.6984 74.912C76.4344 75.1654 76.0417 75.1769 75.7329 74.9821C75.364 74.7488 74.9456 74.625 74.511 74.625H71.8317C71.2122 74.625 70.7071 75.1932 70.7071 75.891C70.7071 76.4621 71.0511 76.965 71.543 77.1129L75.832 78.4086C77.6039 78.9442 78.842 80.6565 78.842 82.5733C78.842 84.9277 77.0263 86.8387 74.775 86.8992ZM97.65 85.375C97.65 85.7992 97.3088 86.1429 96.8875 86.1429H86.2125C85.7912 86.1429 85.45 85.7992 85.45 85.375V83.8393C85.45 83.415 85.7912 83.0714 86.2125 83.0714H96.8875C97.3088 83.0714 97.65 83.415 97.65 83.8393V85.375ZM112.9 85.375C112.9 85.7992 112.559 86.1429 112.138 86.1429H104.513C104.091 86.1429 103.75 85.7992 103.75 85.375V83.8393C103.75 83.415 104.091 83.0714 104.513 83.0714H112.138C112.559 83.0714 112.9 83.415 112.9 83.8393V85.375ZM112.9 76.1607C112.9 76.585 112.559 76.9286 112.138 76.9286H86.2125C85.7912 76.9286 85.45 76.585 85.45 76.1607V74.625C85.45 74.2008 85.7912 73.8571 86.2125 73.8571H112.138C112.559 73.8571 112.9 74.2008 112.9 74.625V76.1607Z" fill="white"/>
<defs>
<filter id="filter0_d" x="0" y="0.5" width="178" height="178" filterUnits="userSpaceOnUse" color-interpolation-filters="sRGB">
<feFlood flood-opacity="0" result="BackgroundImageFix"/>
<feColorMatrix in="SourceAlpha" type="matrix" values="0 0 0 0 0 0 0 0 0 0 0 0 0 0 0 0 0 0 127 0"/>
<feOffset dy="10"/>
<feGaussianBlur stdDeviation="15"/>
<feColorMatrix type="matrix" values="0 0 0 0 0.384314 0 0 0 0 0.192157 0 0 0 0 0.933333 0 0 0 0.45 0"/>
<feBlend mode="normal" in2="BackgroundImageFix" result="effect1_dropShadow"/>
<feBlend mode="normal" in="SourceGraphic" in2="effect1_dropShadow" result="shape"/>
</filter>
<linearGradient id="paint0_linear" x1="89" y1="20.5" x2="89" y2="138.5" gradientUnits="userSpaceOnUse">
<stop stop-color="#1C2973"/>
<stop offset="1" stop-color="#6231EE"/>
</linearGradient>
</defs>
</svg>
