<?xml version="1.0" encoding="UTF-8" standalone="no"?>
<svg
   xmlns:dc="http://purl.org/dc/elements/1.1/"
   xmlns:cc="http://creativecommons.org/ns#"
   xmlns:rdf="http://www.w3.org/1999/02/22-rdf-syntax-ns#"
   xmlns:svg="http://www.w3.org/2000/svg"
   xmlns="http://www.w3.org/2000/svg"
   xmlns:sodipodi="http://sodipodi.sourceforge.net/DTD/sodipodi-0.dtd"
   xmlns:inkscape="http://www.inkscape.org/namespaces/inkscape"
   version="1.1"
   id="svg38"
   xml:space="preserve"
   width="678.98669"
   height="685.76001"
   viewBox="0 0 678.98669 685.76001"
   sodipodi:docname="sevi.svg"
   inkscape:version="1.0.2 (e86c8708, 2021-01-15)"><metadata
     id="metadata44"><rdf:RDF><cc:Work
         rdf:about=""><dc:format>image/svg+xml</dc:format><dc:type
           rdf:resource="http://purl.org/dc/dcmitype/StillImage" /><dc:title></dc:title></cc:Work></rdf:RDF></metadata><defs
     id="defs42" /><sodipodi:namedview
     pagecolor="#ffffff"
     bordercolor="#666666"
     borderopacity="1"
     objecttolerance="10"
     gridtolerance="10"
     guidetolerance="10"
     inkscape:pageopacity="0"
     inkscape:pageshadow="2"
     inkscape:window-width="1547"
     inkscape:window-height="1027"
     id="namedview40"
     showgrid="false"
     inkscape:zoom="0.97264348"
     inkscape:cx="219.71667"
     inkscape:cy="332.59875"
     inkscape:window-x="0"
     inkscape:window-y="25"
     inkscape:window-maximized="0"
     inkscape:current-layer="g48" /><g
     id="g46"
     inkscape:groupmode="layer"
     inkscape:label="ink_ext_XXXXXX"
     transform="matrix(1.3333333,0,0,-1.3333333,0,685.76)"><g
       id="g48"
       transform="scale(0.1)"><path
         d="m 1284.95,2565.46 c 1.08,1.33 1.56,3.06 2.76,4.28 3.91,3.98 7.43,8.26 11,12.51 15.5,21.26 28.32,44.27 43.27,65.91 1.38,2 2.89,3.91 4.3,5.87 -10.48,4.84 -19.32,10.31 -26.03,16.6 -13.94,13.12 -20.94,30.23 -20.94,51.45 0,26.19 11.21,46.97 33.68,62.23 22.42,15.2 53.1,22.85 92.08,22.85 48.77,0 96.34,-13.53 142.74,-40.54 25.55,-14.88 58.32,-4.7 70.15,22.4 v 0 c 9.71,22.25 2.05,48.47 -18.35,61.63 -20.74,13.38 -43.68,24.49 -68.82,33.34 -39.81,13.94 -81.7,20.94 -125.72,20.94 -73.71,0 -133.2,-17.33 -178.47,-52.05 -45.28,-34.73 -67.91,-80 -67.91,-135.89 0,-44.07 13.94,-80.49 41.88,-109.25 16.52,-17.01 38.38,-30.87 64.38,-42.28"
         style="fill:#35539e;fill-opacity:1;fill-rule:nonzero;stroke:none"
         id="path52" /><path
         d="m 1624.44,2553.78 c -27.95,28.37 -71.96,49.32 -132.06,62.88 l -26.41,6.04 c -8.15,-11.32 -16.65,-22.47 -24.58,-34.1 -12.65,-18.56 -24.17,-37.79 -36.62,-56.36 l 43.16,-9.58 c 36.36,-8.47 62.01,-19.03 76.83,-31.77 14.82,-12.68 22.2,-30.02 22.2,-52.06 0,-25.37 -10.99,-45.05 -33.03,-59.05 -21.98,-13.94 -53.75,-20.95 -95.25,-20.95 -64.68,0 -123.19,14.34 -175.51,43 -26.01,14.25 -58.44,3.03 -70.03,-24.26 v 0 c -10.05,-23.68 -0.63,-50.91 21.5,-64.04 59,-35.01 132.43,-52.52 220.26,-52.52 66.08,0 120.45,11.98 163.18,35.99 66.92,37.59 102.37,119.98 82.23,194.04 -6.59,24.24 -18.55,45.15 -35.87,62.74"
         style="fill:#35539e;fill-opacity:1;fill-rule:nonzero;stroke:none"
         id="path54" /><path
         d="m 2158.45,2764.62 c -28.3,-29.99 -45.66,-72.45 -52.08,-127.39 -0.32,-2.7 1.87,-5.32 4.59,-5.32 h 316.34 c 2.62,0 4.77,2.44 4.61,5.05 -3.17,55.07 -17.69,97.63 -43.59,127.66 -26.63,30.89 -64.08,46.31 -112.37,46.31 -49.1,0 -88.25,-15.42 -117.5,-46.31 z m 384.18,-206.42 h -433.18 c -2.65,0 -4.8,-2.48 -4.58,-5.12 10.67,-127.82 75.72,-191.73 195.2,-191.73 52.85,0 101.94,12.86 147.32,38.59 25.41,14.39 57.54,4.3 69.23,-22.46 v 0 c 9.8,-22.45 1.85,-48.89 -19.02,-61.71 -21.25,-13.07 -45.17,-24.11 -71.77,-33.16 -42.37,-14.38 -85.57,-21.6 -129.54,-21.6 -99.08,0 -177.21,28.38 -234.36,85.14 -57.14,56.71 -85.68,135.01 -85.68,234.91 0,63.54 12.47,119.8 37.46,168.96 24.93,49.05 60.09,87.16 105.37,114.28 45.32,27.07 96.73,40.63 154.3,40.63 83.83,0 149.66,-27.12 197.51,-81.25 47.85,-54.19 71.74,-129.16 71.74,-224.8 v -40.68"
         style="fill:#35539e;fill-opacity:1;fill-rule:nonzero;stroke:none"
         id="path56" /><path
         d="m 3356.49,2888.42 v 0 c 42.1,0 70.39,-43.17 53.59,-81.77 l -210.63,-483.83 c -13.98,-32.12 -45.68,-52.89 -80.71,-52.89 v 0 c -35.15,0 -66.91,20.91 -80.83,53.17 l -206.8,479.61 c -17.47,40.53 12.25,85.71 56.39,85.71 v 0 c 24.96,0 47.44,-15.12 56.86,-38.23 l 173.35,-425.42 c 1.5,-3.69 6.71,-3.7 8.24,-0.02 l 176.52,427.53 c 9.03,21.87 30.36,36.14 54.02,36.14"
         style="fill:#35539e;fill-opacity:1;fill-rule:nonzero;stroke:none"
         id="path58" /><path
         d="m 3741.55,2334.07 v 491.46 c 0,35.43 28.71,64.14 64.14,64.14 v 0 c 35.42,0 64.14,-28.71 64.14,-64.14 v -491.46 c 0,-35.42 -28.72,-64.14 -64.14,-64.14 v 0 c -35.43,0 -64.14,28.72 -64.14,64.14 z m 57.77,832.5 h 14 c 36.83,0 66.68,-29.85 66.68,-66.68 v 0 c 0,-36.82 -29.85,-66.68 -66.68,-66.68 h -14 c -36.83,0 -66.68,29.86 -66.68,66.68 v 0 c 0,36.83 29.85,66.68 66.68,66.68"
         style="fill:#35539e;fill-opacity:1;fill-rule:nonzero;stroke:none"
         id="path60" /><path
         d="m 1270.79,2571.98 89.98,121.61 c 14.13,19.09 42.27,24.32 63.36,11.77 v 0 c 22.21,-13.23 27.83,-40.86 12.31,-60.55 l -82.92,-110.43 -82.73,37.6"
         style="fill:#35539e;fill-opacity:1;fill-rule:nonzero;stroke:none"
         id="path62" /><path
         d="m 1464.96,2623.28 -90.45,-121.26 c -14.2,-19.04 -11.08,-47.49 7.02,-64.06 v 0 c 19.08,-17.45 47.16,-14.85 61.53,5.7 l 81.78,111.28 -59.88,68.34"
         style="fill:#35539e;fill-opacity:1;fill-rule:nonzero;stroke:none"
         id="path64" /></g></g></svg>
